ply
format ascii 1.0
comment Created by Blender 2.78 (sub 0) - www.blender.org, source file: 'floor.blend'
element vertex 30
property float x
property float y
property float z
property float nx
property float ny
property float nz
property uchar red
property uchar green
property uchar blue
element face 12
property list uchar uint vertex_indices
end_header
5.000000 -0.037474 5.000000 -0.000000 -1.000000 0.000000 135 134 136
-4.999998 -0.037474 -5.000002 -0.000000 -1.000000 0.000000 135 134 136
5.000000 -0.037474 -5.000000 -0.000000 -1.000000 0.000000 135 134 136
-5.000000 0.037474 -5.000000 0.000000 1.000000 0.000000 135 134 136
4.999997 0.037474 5.000003 0.000000 1.000000 0.000000 135 134 136
5.000002 0.037474 -4.999997 0.000000 1.000000 0.000000 135 134 136
5.000002 0.037474 -4.999997 1.000000 -0.000032 0.000000 135 134 136
5.000000 -0.037474 5.000000 1.000000 -0.000032 0.000000 135 134 136
5.000000 -0.037474 -5.000000 1.000000 -0.000032 0.000000 135 134 136
4.999997 0.037474 5.000003 -0.000000 -0.000038 1.000000 135 134 136
-5.000000 -0.037474 4.999999 -0.000000 -0.000038 1.000000 135 134 136
5.000000 -0.037474 5.000000 -0.000000 -0.000038 1.000000 135 134 136
-5.000000 -0.037474 4.999999 -1.000000 -0.000019 -0.000000 135 134 136
-5.000000 0.037474 -5.000000 -1.000000 -0.000019 -0.000000 135 134 136
-4.999998 -0.037474 -5.000002 -1.000000 -0.000019 -0.000000 135 134 136
5.000000 -0.037474 -5.000000 0.000000 0.000032 -1.000000 135 134 136
-5.000000 0.037474 -5.000000 0.000000 0.000032 -1.000000 135 134 136
5.000002 0.037474 -4.999997 0.000000 0.000032 -1.000000 135 134 136
-5.000000 -0.037474 4.999999 0.000000 -1.000000 0.000000 135 134 136
-5.000002 0.037474 4.999998 0.000000 1.000000 0.000000 135 134 136
5.000002 0.037474 -4.999997 1.000000 0.000045 0.000001 135 134 136
4.999997 0.037474 5.000003 1.000000 0.000045 0.000001 135 134 136
5.000000 -0.037474 5.000000 1.000000 0.000045 0.000001 135 134 136
4.999997 0.037474 5.000003 -0.000000 0.000013 1.000000 135 134 136
-5.000002 0.037474 4.999998 -0.000000 0.000013 1.000000 135 134 136
-5.000000 -0.037474 4.999999 -0.000000 0.000013 1.000000 135 134 136
-5.000002 0.037474 4.999998 -1.000000 -0.000019 -0.000000 135 134 136
5.000000 -0.037474 -5.000000 0.000000 0.000025 -1.000000 135 134 136
-4.999998 -0.037474 -5.000002 0.000000 0.000025 -1.000000 135 134 136
-5.000000 0.037474 -5.000000 0.000000 0.000025 -1.000000 135 134 136
3 0 1 2
3 3 4 5
3 6 7 8
3 9 10 11
3 12 13 14
3 15 16 17
3 0 18 1
3 3 19 4
3 20 21 22
3 23 24 25
3 12 26 13
3 27 28 29
