ply
format ascii 1.0
comment Created by Blender 2.78 (sub 0) - www.blender.org, source file: 'table.blend'
element vertex 112
property float x
property float y
property float z
property float s
property float t
element face 76
property list uchar uint vertex_indices
end_header
-3.000000 3.279705 1.500000 0.203177 0.996220
-3.000000 3.001467 -1.500000 0.008749 0.912499
-3.000000 3.001467 1.500000 0.203177 0.912499
-3.000000 3.279705 -1.500000 0.796823 0.003780
3.000000 3.001467 -1.500000 0.991251 0.087146
-3.000000 3.001467 -1.500000 0.796823 0.087146
3.000000 3.279705 -1.500000 0.220675 0.003780
3.000000 3.001467 1.500000 0.415102 0.087501
3.000000 3.001467 -1.500000 0.220675 0.087501
3.000000 3.279705 1.500000 0.991251 0.190347
-3.000000 3.001467 1.500000 0.796823 0.106981
3.000000 3.001467 1.500000 0.991251 0.106981
2.393073 2.982270 0.723813 0.933643 0.294806
2.393073 2.982270 1.196537 0.964280 0.294806
-2.393073 2.982270 0.723813 0.933643 0.361809
-3.000000 3.279705 -1.500000 0.991251 0.281904
3.000000 3.279705 1.500000 0.796823 0.197907
3.000000 3.279705 -1.500000 0.991251 0.197907
-2.774625 2.982270 0.723813 0.152873 0.906467
-2.774625 2.982270 -0.702409 0.060440 0.906467
2.774625 2.982270 -1.387312 0.983948 0.093284
2.774625 2.982270 -0.702409 0.272366 0.093533
-2.774625 2.982270 1.387312 0.804126 0.100844
2.774625 2.982270 -1.387312 0.432601 0.906467
2.393073 -0.017730 -1.196537 0.444965 0.004213
2.393073 2.982270 -1.196537 0.444965 0.906900
2.393073 2.982270 -1.196537 0.809187 0.294806
-2.774625 2.982270 -1.387312 0.796823 0.367151
2.774625 2.982270 -1.387312 0.796823 0.289464
-2.774625 2.982270 -0.702409 0.689737 0.003780
-2.393073 -0.017730 -0.702409 0.677373 0.902643
-2.393073 2.982270 -0.702409 0.677373 0.003780
-2.393073 2.982270 1.196537 0.964280 0.361809
2.774625 2.982270 1.387312 0.976644 0.289464
-2.774625 2.982270 1.387312 0.976644 0.367151
2.393073 2.982270 -0.702409 0.841211 0.294806
2.774625 2.982270 0.723813 0.933643 0.289464
-2.774625 2.982270 1.387312 0.616873 0.906467
-2.393073 -0.017730 1.196537 0.629237 0.004213
-2.393073 2.982270 1.196537 0.629237 0.906900
2.393073 2.982270 -0.702409 0.719599 0.003780
2.774625 -0.017730 -0.702409 0.707236 0.902643
2.774625 2.982270 -0.702409 0.707235 0.003780
-2.774625 2.982270 -0.702409 0.841211 0.367151
-2.393073 2.982270 -0.702409 0.841211 0.361809
-2.393073 -0.017730 1.196537 0.886411 0.380052
-2.774625 -0.017730 0.723813 0.898775 0.393288
-2.393073 -0.017730 0.723813 0.886411 0.393288
2.393073 -0.017730 -1.196537 0.809187 0.388546
2.774625 -0.017730 -0.702409 0.796823 0.374711
2.393073 -0.017730 -0.702409 0.809187 0.374711
-2.393073 -0.017730 -1.196537 0.826686 0.388546
-2.774625 -0.017730 -0.702409 0.839050 0.374711
-2.774625 -0.017730 -1.387312 0.839050 0.393887
2.393073 -0.017730 1.196537 0.856548 0.387947
2.774625 -0.017730 0.723813 0.868912 0.374711
2.774625 -0.017730 1.387312 0.868912 0.393288
-2.774625 -0.017730 1.387312 0.195873 0.003780
-2.774625 2.982270 1.387312 0.195873 0.906467
2.393073 2.982270 1.196537 0.568738 0.003780
2.774625 -0.017730 1.387312 0.556374 0.906900
2.774625 2.982270 1.387312 0.556374 0.004213
-2.393073 -0.017730 0.723813 0.659874 0.004213
-2.393073 2.982270 0.723813 0.659874 0.906900
-2.774625 2.982270 -1.387312 0.016052 0.906467
-2.774625 -0.017730 -0.702409 0.060440 0.003780
2.774625 2.982270 1.387312 0.407799 0.093533
2.774625 -0.017730 0.723813 0.364799 0.996220
2.774625 2.982270 0.723813 0.364798 0.093533
2.774625 -0.017730 -1.387312 0.227978 0.996220
2.774625 2.982270 -1.387312 0.227978 0.093533
2.393073 -0.017730 -0.702409 0.476989 0.004213
2.393073 2.982270 -0.702409 0.476989 0.906900
2.393073 2.982270 0.723813 0.599375 0.003780
2.393073 -0.017730 1.196537 0.568738 0.906467
-2.393073 2.982270 -0.702409 0.494488 0.906900
-2.393073 -0.017730 -1.196537 0.526512 0.004213
-2.393073 2.982270 -1.196537 0.526511 0.906900
2.774625 2.982270 0.723813 0.737098 0.902643
2.393073 -0.017730 0.723813 0.749462 0.003780
2.393073 2.982270 0.723813 0.749462 0.902643
-2.774625 -0.017730 -1.387312 0.538876 0.003780
-2.774625 2.982270 -1.387312 0.538876 0.906467
-2.393073 2.982270 0.723813 0.779325 0.003780
-2.774625 -0.017730 0.723813 0.766961 0.902643
-2.774625 2.982270 0.723813 0.766961 0.003780
-3.000000 3.279705 -1.500000 0.008749 0.996220
3.000000 3.279705 -1.500000 0.991251 0.003780
3.000000 3.279705 1.500000 0.415102 0.003780
-3.000000 3.279705 1.500000 0.796823 0.190347
-2.393073 2.982270 -1.196537 0.809187 0.361809
-3.000000 3.279705 1.500000 0.796823 0.281904
-2.774625 2.982270 -1.387312 0.804127 0.093284
2.774625 2.982270 1.387312 0.983947 0.100844
2.774625 -0.017730 -1.387312 0.432601 0.003780
-2.774625 -0.017730 -0.702409 0.689737 0.902643
2.774625 2.982270 -0.702409 0.841211 0.289464
-2.774625 -0.017730 1.387312 0.616873 0.003780
2.393073 -0.017730 -0.702409 0.719600 0.902643
-2.774625 2.982270 0.723813 0.933643 0.367151
-2.774625 -0.017730 1.387312 0.898775 0.374711
2.774625 -0.017730 -1.387312 0.796823 0.393887
-2.393073 -0.017730 -0.702409 0.826686 0.374711
2.393073 -0.017730 0.723813 0.856548 0.374711
-2.774625 -0.017730 0.723813 0.152872 0.003780
-2.774625 -0.017730 -1.387312 0.016052 0.003780
2.774625 -0.017730 1.387312 0.407799 0.996220
2.774625 -0.017730 -0.702409 0.272366 0.996220
2.393073 -0.017730 0.723813 0.599375 0.906467
-2.393073 -0.017730 -0.702409 0.494488 0.004213
2.774625 -0.017730 0.723813 0.737098 0.003780
-2.393073 -0.017730 0.723813 0.779325 0.902643
3 0 1 2
3 3 4 5
3 6 7 8
3 9 10 11
3 12 13 14
3 15 16 17
3 18 2 19
3 20 5 4
3 21 8 7
3 22 11 10
3 23 24 25
3 26 27 28
3 29 30 31
3 32 33 34
3 35 36 12
3 37 38 39
3 40 41 42
3 14 43 44
3 45 46 47
3 48 49 50
3 51 52 53
3 54 55 56
3 18 57 58
3 59 60 61
3 39 62 63
3 64 65 19
3 66 67 68
3 21 69 70
3 25 71 72
3 73 74 59
3 75 76 77
3 78 79 80
3 77 81 82
3 83 84 85
3 0 86 1
3 3 87 4
3 6 88 7
3 9 89 10
3 44 90 26
3 26 35 44
3 14 44 35
3 13 32 14
3 14 35 12
3 15 91 16
3 1 64 19
3 18 58 2
3 1 19 2
3 20 92 5
3 7 66 68
3 21 70 8
3 7 68 21
3 22 93 11
3 23 94 24
3 26 90 27
3 29 95 30
3 32 13 33
3 35 96 36
3 37 97 38
3 40 98 41
3 14 99 43
3 45 100 46
3 48 101 49
3 51 102 52
3 54 103 55
3 18 104 57
3 59 74 60
3 39 38 62
3 64 105 65
3 66 106 67
3 21 107 69
3 25 24 71
3 73 108 74
3 75 109 76
3 78 110 79
3 77 76 81
3 83 111 84
